<?xml version="1.0" standalone="no"?>
<!DOCTYPE svg PUBLIC "-//W3C//DTD SVG 20010904//EN"
 "http://www.w3.org/TR/2001/REC-SVG-20010904/DTD/svg10.dtd">
<svg version="1.0" xmlns="http://www.w3.org/2000/svg"
 width="300.000000pt" height="300.000000pt" viewBox="0 0 300.000000 300.000000"
 preserveAspectRatio="xMidYMid meet">
<metadata>
Created by potrace 1.10, written by Peter Selinger 2001-2011
</metadata>
<g transform="translate(0.000000,300.000000) scale(0.100000,-0.100000)"
fill="#000000" stroke="none">
<path d="M1458 2773 c-9 -10 -75 -121 -148 -248 -73 -126 -225 -389 -337 -582
-111 -194 -296 -514 -409 -710 -114 -197 -250 -432 -302 -523 -212 -366 -262
-456 -262 -472 0 -10 9 -27 20 -38 20 -20 33 -20 1480 -20 1447 0 1460 0 1480
20 23 23 25 42 9 73 -12 23 -118 206 -519 902 -432 748 -650 1126 -768 1330
-156 272 -161 279 -198 283 -19 2 -36 -3 -46 -15z m170 -198 c57 -99 145 -250
194 -335 50 -85 102 -175 115 -200 14 -25 65 -112 113 -195 48 -82 148 -256
222 -385 498 -864 663 -1150 685 -1184 24 -38 25 -40 7 -53 -27 -20 -2901 -19
-2929 1 -15 10 -17 17 -8 27 6 8 79 133 163 279 84 146 245 425 358 620 113
195 364 632 559 970 196 338 360 621 366 628 27 34 51 8 155 -173z"/>
<path d="M1478 2623 c-15 -17 -61 -95 -495 -848 -525 -909 -821 -1422 -832
-1443 -8 -16 -9 -27 -1 -42 11 -20 21 -20 1348 -20 l1337 0 13 21 c12 18 1 42
-109 232 -68 117 -171 295 -229 397 -59 102 -174 302 -257 445 -83 143 -277
481 -433 750 -270 468 -304 525 -320 525 -4 0 -14 -8 -22 -17z m237 -380 c199
-346 299 -520 480 -833 42 -74 197 -342 343 -595 145 -253 273 -472 284 -487
l19 -28 -1341 0 -1341 0 19 28 c10 15 149 252 307 527 159 275 321 556 361
625 118 204 391 679 525 912 68 119 126 217 129 217 3 0 100 -164 215 -366z"/>
<path d="M1415 1858 c-3 -7 -4 -213 -3 -458 l3 -445 85 0 85 0 0 455 0 455
-83 3 c-60 2 -84 -1 -87 -10z m135 -450 l0 -423 -55 3 -55 4 0 419 0 419 55 0
55 0 0 -422z"/>
<path d="M1412 683 l3 -98 85 0 85 0 3 98 3 97 -91 0 -91 0 3 -97z m148 2 l0
-65 -60 0 -60 0 0 65 0 65 60 0 60 0 0 -65z"/>
</g>
</svg>
